# AST/ASF file generated using VICON BodyLanguage
# -----------------------------------------------
:version 1.10
:name VICON
:units
  mass 1.0
  length 0.45
  angle deg
:documentation
   .ast/.asf automatically generated from VICON data using
   VICON BodyBuilder and BodyLanguage model FoxedUp or BRILLIANT.MOD
:root
   order TX TY TZ RX RY RZ
   axis XYZ
   position 0 0 0  
   orientation 0 0 0 
:bonedata
  begin
     id 1 
     name lhipjoint
     direction 0.578396 -0.714046 0.394458 
     length 2.21935 
     axis 0 0 0  XYZ
  end
  begin
     id 2 
     name lfemur
     direction 0.34202 -0.939693 0  
     length 6.39105  
     axis 0 0 20  XYZ
    dof rx ry rz
    limits (-160.0 20.0)
           (-70.0 70.0)
           (-60.0 70.0)
  end
  begin
     id 3 
     name ltibia
     direction 0.34202 -0.939693 0   
     length 6.99037   
     axis 0 0 20   XYZ
    dof rx
    limits (-10.0 170.0)
  end
  begin
     id 4 
     name lfoot
     direction 0.0582372 -0.160005 0.985397   
     length 2.06111   
     axis -90 7.62852e-016 20   XYZ
    dof rx rz
    limits (-45.0 90.0)
           (-70.0 20.0)
  end
  begin
     id 5 
     name ltoes
     direction 1.53556e-011 -4.21875e-011 1   
     length 1.04074   
     axis -90 7.62852e-016 20   XYZ
    dof rx
    limits (-90.0 20.0)
  end
  begin
     id 6 
     name rhipjoint
     direction -0.558179 -0.726269 0.40121   
     length 2.182  
     axis 0 0 0  XYZ 
  end
  begin
     id 7 
     name rfemur
     direction -0.34202 -0.939693 0   
     length 6.51172   
     axis 0 0 -20   XYZ
    dof rx ry rz
    limits (-160.0 20.0)
           (-70.0 70.0)
           (-70.0 60.0)
  end
  begin
     id 8 
     name rtibia
     direction -0.34202 -0.939693 0   
     length 7.02607   
     axis 0 0 -20   XYZ
    dof rx
    limits (-10.0 170.0)
 end
 begin
     id 9 
     name rfoot
     direction -0.0788856 -0.216737 0.973038   
     length 1.96734  
     axis -90 -7.62852e-016 -20   XYZ
    dof rx rz
    limits (-45.0 90.0)
           (-20.0 70.0)
  end
  begin
     id 10 
     name rtoes
     direction -1.53567e-011 -4.21783e-011 1   
     length 0.990825   
     axis -90 -7.62852e-016 -20   XYZ
    dof rx
    limits (-90.0 20.0)
  end
  begin
     id 11 
     name lowerback
     direction 0.00668177 0.999323 -0.0361741   
     length 1.7655   
     axis 0 0 0   XYZ
    dof rx ry rz
    limits (-20.0 45.0)
           (-30.0 30.0)
           (-30.0 30.0)
  end
  begin
     id 12 
     name upperback
     direction -0.00222086 0.99851 0.0545167   
     length 1.74912   
     axis 0 0 0   XYZ
    dof rx ry rz
    limits (-20.0 45.0)
           (-30.0 30.0)
           (-30.0 30.0)
  end
  begin
     id 13 
     name thorax
     direction -0.00733971 0.997496 0.0703443   
     length 1.75715   
     axis 0 0 0   XYZ
    dof rx ry rz
    limits (-20.0 45.0)
           (-30.0 30.0)
           (-30.0 30.0)
  end
  begin
     id 14 
     name lowerneck
     direction 0.0279797 0.994795 0.0979765   
     length 1.46939   
     axis 0 0 0   XYZ
    dof rx ry rz
    limits (-20.0 45.0)
           (-30.0 30.0)
           (-30.0 30.0)
  end
  begin
     id 15 
     name upperneck
     direction 0.00339187 0.976776 -0.214238   
     length 1.48018   
     axis 0 0 0   XYZ
    dof rx ry rz
    limits (-20.0 45.0)
           (-30.0 30.0)
           (-30.0 30.0)
  end
  begin
     id 16
     name head
     direction -0.00263506 0.996603 -0.0823096  
     length 1.4976  
     axis 0 0 0   XYZ
    dof rx ry rz
    limits (-20.0 45.0)
           (-30.0 30.0)
           (-30.0 30.0)
  end
  begin
     id 17 
     name lclavicle
     direction 0.894044 0.44508 -0.0508781  
     length 3.03024  
     axis 0 0 0   XYZ
    dof ry rz
    limits (-20.0 10.0)
           (0.0 20.0)
  end
  begin
     id 18 
     name lhumerus
     direction 1 -4.48961e-011 -2.39475e-018   
     length 4.4661   
     axis 180 -30 -90   XYZ
    dof rx ry rz
    limits (-60.0 90.0)
           (-90.0 90.0)
           (-90.0 90.0)
  end
  begin
     id 19
     name lradius
     direction 1 -4.48961e-011 9.29328e-028   
     length 3.41414   
     axis 180 -30 -90   XYZ
    dof rx
    limits (-10.0 170.0)
  end
  begin
     id 20
     name lwrist
     direction 1 -4.48985e-011 1.53461e-026   
     length 1.70707   
     axis -1.09697e-014 90 90   XYZ
    dof ry
    limits (-180.0 0.0)
 end
  begin
     id 21 
     name lhand
     direction 1 -4.48966e-011 3.06923e-026   
     length 0.328298   
     axis -1.95843e-014 90 90   XYZ
    dof rx rz
    limits (-90.0 90.0)
           (-45.0 45.0)
  end
  begin
     id 22 
     name lfingers
     direction 1 -4.48893e-011 6.13845e-026   
     length 0.264682   
     axis -3.91686e-014 90 90   XYZ
    dof rx
    limits (0.0 90.0)
  end
  begin
     id 23
     name lthumb
     direction 0.707107 -6.34876e-011 0.707107   
     length 0.380032   
     axis -90 45 2.85299e-015   XYZ
    dof rx rz
    limits (-45.0 45.0)
           (-45.0 45.0)
  end
  begin
     id 24 
     name rclavicle
     direction -0.936955 0.347862 -0.0332887   
     length 3.26927  
     axis 0 0 0   XYZ 
    dof ry rz
    limits (-10.0 20.0)
           (-20.0 0.0)
  end
  begin
     id 25 
     name rhumerus
     direction -1 -4.4896e-011 1.78637e-018  
     length 4.40431   
     axis 180 30 90   XYZ
    dof rx ry rz
    limits (-90.0 60.0)
           (-90.0 90.0)
           (-90.0 90.0)
  end
  begin
     id 26 
     name rradius
     direction -1 -4.48955e-011 9.34036e-027   
     length 3.04688   
     axis 180 30 90   XYZ
    dof rx
    limits (-10.0 170.0)
  end
  begin
     id 27 
     name rwrist
     direction -1 -4.49011e-011 1.53461e-026   
     length 1.52344   
     axis -1.09697e-014 -90 -90   XYZ
    dof ry
    limits (-180.0 0.0)
  end
  begin
     id 28
     name rhand
     direction -1 -4.48834e-011 3.06923e-026   
     length 0.500489   
     axis -1.95843e-014 -90 -90   XYZ
    dof rx rz
    limits (-90.0 90.0)
           (-45.0 45.0)
  end
  begin
     id 29
     name rfingers
     direction -1 -4.48967e-011 6.13845e-026   
     length 0.403507   
     axis -3.91686e-014 -90 -90   XYZ
    dof rx
    limits (0.0 90.0)
  end
  begin
     id 30
     name rthumb
     direction -0.707107 -6.34826e-011 0.707107   
     length 0.579358   
     axis -90 -45 -2.85299e-015   XYZ
    dof rx rz
    limits (-45.0 45.0)
           (-45.0 45.0)
  end
:hierarchy
  begin
    root lhipjoint rhipjoint lowerback
    lhipjoint lfemur
    lfemur ltibia
    ltibia lfoot
    lfoot ltoes
    rhipjoint rfemur
    rfemur rtibia
    rtibia rfoot
    rfoot rtoes
    lowerback upperback
    upperback thorax
    thorax lowerneck lclavicle rclavicle
    lowerneck upperneck
    upperneck head
    lclavicle lhumerus
    lhumerus lradius
    lradius lwrist
    lwrist lhand lthumb
    lhand lfingers
    rclavicle rhumerus
    rhumerus rradius
    rradius rwrist
    rwrist rhand rthumb
    rhand rfingers
  end

#!OML:ASF H:\IndianDance\Patient Classification 1\Patient 1\Session 1\dancer.ASF
:FULLY-SPECIFIED
:DEGREES
2706
root -3.76536 14.9354 18.2694 -149.977 -79.4841 149.978
lowerback -2.41081 2.2673 -4.76551
upperback -7.0154 2.78245 0.736993
thorax -6.23864 1.58185 3.35261
lowerneck -10.3013 -14.4707 -11.4329
upperneck 16.9165 -23.1308 18.3232
head 10.7212 -10.315 4.74796
rclavicle -3.63776e-014 -3.18055e-015
rhumerus 34.7055 -10.6888 -89.5992
rradius 16.4586
rwrist -35.6442
rhand -19.1254 -10.1938
rfingers 7.12502
rthumb 7.18408 -40.0519
lclavicle -3.63776e-014 -3.18055e-015
lhumerus 21.6464 -64.3705 -6.80623
lradius 122.255
lwrist -2.41973
lhand -59.3881 -15.6647
lfingers 7.12502
lthumb -31.5692 11.6267
rfemur -33.4727 -2.76258 26.2495
rtibia 46.7032
rfoot -7.23497 0.316365
rtoes 17.6679
lfemur -11.9295 2.38674 -23.3694
ltibia 42.5263
lfoot -17.5798 11.0309
ltoes -16.4436
2707
root -3.96795 14.9266 18.2052 -150.03 -79.402 150.171
lowerback -2.44093 2.14425 -4.82391
upperback -6.99433 2.61932 0.734211
thorax -6.18595 1.50264 3.39034
lowerneck -10.3326 -14.542 -11.4783
upperneck 16.9159 -23.2236 18.3103
head 10.7463 -10.3586 4.72748
rclavicle 2.5842e-015 0
rhumerus 34.829 -9.95694 -88.9445
rradius 16.7721
rwrist -36.347
rhand -19.1676 -10.4743
rfingers 7.12502
rthumb 7.14342 -40.3337
lclavicle 2.5842e-015 0
lhumerus 21.9928 -64.415 -7.0671
lradius 122.026
lwrist -2.31032
lhand -59.4559 -16.3415
lfingers 7.12502
lthumb -31.6337 10.9372
rfemur -34.2173 -3.16208 26.3855
rtibia 48.9623
rfoot -6.82005 0.649353
rtoes 16.4557
lfemur -12.1915 2.36854 -23.2644
ltibia 42.0703
lfoot -17.383 12.1548
ltoes -14.6716
2708
root -4.16682 14.9147 18.1434 -150.382 -79.158 150.678
lowerback -2.45914 2.06635 -4.87852
upperback -6.97464 2.51595 0.735026
thorax -6.14733 1.45317 3.42675
lowerneck -10.341 -14.6049 -11.5236
upperneck 16.8689 -23.284 18.2755
head 10.7411 -10.3921 4.70789
rclavicle -2.56432e-014 -4.77083e-015
rhumerus 34.8778 -8.9816 -88.117
rradius 17.2287
rwrist -37.2149
rhand -19.2428 -10.834
rfingers 7.12502
rthumb 7.07075 -40.6959
lclavicle -2.56432e-014 -4.77083e-015
lhumerus 22.2403 -64.4142 -7.19656
lradius 121.805
lwrist -2.18688
lhand -59.4818 -16.93
lfingers 7.12502
lthumb -31.6583 10.3439
rfemur -35.1302 -3.48621 26.4854
rtibia 51.3433
rfoot -6.31498 0.992137
rtoes 14.4462
lfemur -12.2277 2.45792 -23.159
ltibia 41.8146
lfoot -17.2514 12.9897
ltoes -13.4298
2709
root -4.36285 14.8989 18.0842 -151.028 -78.7449 151.478
lowerback -2.45568 2.03429 -4.92883
upperback -6.95183 2.47332 0.742422
thorax -6.12391 1.43412 3.46459
lowerneck -10.3165 -14.6557 -11.57
upperneck 16.7761 -23.3085 18.2197
head 10.7039 -10.4147 4.6914
rclavicle 1.39149e-015 5.56597e-015
rhumerus 34.8465 -7.74468 -87.0985
rradius 17.8587
rwrist -38.3129
rhand -19.3628 -11.2923
rfingers 7.12502
rthumb 6.95497 -41.158
lclavicle 1.39149e-015 5.56597e-015
lhumerus 22.3579 -64.3699 -7.16682
lradius 121.594
lwrist -2.05941
lhand -59.4568 -17.3801
lfingers 7.12502
lthumb -31.6346 9.89843
rfemur -36.1648 -3.70671 26.5434
rtibia 53.7559
rfoot -5.78441 1.40176
rtoes 11.7761
lfemur -11.9858 2.66268 -23.0553
ltibia 41.6558
lfoot -17.242 13.5805
ltoes -13.1116
2710
root -4.55766 14.8797 18.0273 -151.837 -78.1668 152.414
lowerback -2.40694 2.04537 -4.98806
upperback -6.92846 2.48619 0.74942
thorax -6.13202 1.4439 3.50333
lowerneck -10.2594 -14.6924 -11.6092
upperneck 16.6496 -23.298 18.138
head 10.6375 -10.4262 4.67506
rclavicle 1.49089e-014 1.74931e-014
rhumerus 34.7204 -6.25785 -85.8857
rradius 18.6911
rwrist -39.6853
rhand -19.5373 -11.8722
rfingers 7.12502
rthumb 6.78648 -41.7434
lclavicle 1.49089e-014 1.74931e-014
lhumerus 22.3594 -64.3056 -6.99782
lradius 121.386
lwrist -1.97702
lhand -59.4083 -17.7841
lfingers 7.12502
lthumb -31.5884 9.50352
rfemur -37.259 -3.81858 26.5383
rtibia 56.0847
rfoot -5.31539 1.94426
rtoes 8.69604
lfemur -11.4265 2.97334 -22.9755
ltibia 41.4755
lfoot -17.3312 13.9816
ltoes -13.7078
2711
root -4.75271 14.8578 17.972 -152.732 -77.4427 153.398
lowerback -2.2931 2.09416 -5.05699
upperback -6.91429 2.54557 0.753384
thorax -6.19271 1.47856 3.54002
lowerneck -10.1549 -14.7091 -11.6432
upperneck 16.4999 -23.2532 18.042
head 10.5454 -10.4274 4.66415
rclavicle 2.26615e-014 1.74931e-014
rhumerus 34.4846 -4.55078 -84.499
rradius 19.7474
rwrist -41.3421
rhand -19.7881 -12.5822
rfingers 7.12502
rthumb 6.54441 -42.461
lclavicle 2.26615e-014 1.74931e-014
lhumerus 22.2707 -64.2493 -6.71037
lradius 121.186
lwrist -1.91367
lhand -59.3217 -18.0316
lfingers 7.12502
lthumb -31.5059 9.27216
rfemur -38.3572 -3.82165 26.4752
rtibia 58.2016
rfoot -4.98483 2.61836
rtoes 5.54246
lfemur -10.5358 3.36979 -22.9254
ltibia 41.1665
lfoot -17.5006 14.2365
ltoes -14.9466
2712
root -4.94959 14.8342 17.9172 -153.586 -76.5998 154.297
lowerback -2.10884 2.16842 -5.15308
upperback -6.91855 2.63347 0.749417
thorax -6.3182 1.53033 3.57926
lowerneck -10.0064 -14.7004 -11.6718
upperneck 16.3502 -23.1765 17.9397
head 10.4385 -10.4177 4.66068
rclavicle -8.94531e-015 7.15625e-015
rhumerus 34.1303 -2.65782 -82.9718
rradius 21.0464
rwrist -43.274
rhand -20.145 -13.4185
rfingers 7.12502
rthumb 6.19987 -43.3078
lclavicle -8.94531e-015 7.15625e-015
lhumerus 22.0843 -64.2189 -6.30504
lradius 120.985
lwrist -1.86458
lhand -59.1926 -18.1202
lfingers 7.12502
lthumb -31.3829 9.20756
rfemur -39.4167 -3.73748 26.3562
rtibia 59.9844
rfoot -4.8673 3.34042
rtoes 2.71825
lfemur -9.33058 3.82076 -22.9267
ltibia 40.6472
lfoot -17.7231 14.4105
ltoes -16.4509
2713
root -5.14982 14.8099 17.8615 -154.313 -75.6727 155.03
lowerback -1.8672 2.25539 -5.28699
upperback -6.94716 2.73203 0.732173
thorax -6.50639 1.59073 3.62201
lowerneck -9.82526 -14.6667 -11.6847
upperneck 16.2182 -23.0764 17.8351
head 10.326 -10.3988 4.66177
rclavicle 1.63003e-014 1.11319e-014
rhumerus 33.6567 -0.630763 -81.3553
rradius 22.5929
rwrist -45.4274
rhand -20.6286 -14.369
rfingers 7.12502
rthumb 5.73297 -44.2715
lclavicle 1.63003e-014 1.11319e-014
lhumerus 21.8175 -64.2285 -5.79677
lradius 120.772
lwrist -1.83413
lhand -59.0356 -18.1473
lfingers 7.12502
lthumb -31.2333 9.20947
rfemur -40.4087 -3.59488 26.1962
rtibia 61.3315
rfoot -4.99299 3.93861
rtoes 0.547708
lfemur -7.86123 4.29746 -22.9977
ltibia 39.8748
lfoot -17.9501 14.5999
ltoes -18.0823
2714
root -5.35402 14.7849 17.8036 -154.857 -74.6974 155.555
lowerback -1.58721 2.34265 -5.47072
upperback -7.00156 2.8241 0.69703
thorax -6.74711 1.65163 3.67126
lowerneck -9.64131 -14.6119 -11.6819
upperneck 16.1356 -22.9675 17.7382
head 10.229 -10.3737 4.66527
rclavicle -1.78906e-014 -7.95139e-016
rhumerus 33.0797 1.46076 -79.7179
rradius 24.369
rwrist -47.7057
rhand -21.2678 -15.4006
rfingers 7.12502
rthumb 5.11578 -45.3188
lclavicle -1.78906e-014 -7.95139e-016
lhumerus 21.4642 -64.2665 -5.17554
lradius 120.542
lwrist -1.76565
lhand -58.8046 -18.0213
lfingers 7.12502
lthumb -31.0131 9.37764
rfemur -41.3155 -3.42224 26.0125
rtibia 62.1727
rfoot -5.38404 4.16077
rtoes -0.893659
lfemur -6.20195 4.77546 -23.1523
ltibia 38.8542
lfoot -18.119 14.8583
ltoes -19.5657
2715
root -5.56274 14.7596 17.7424 -155.164 -73.7037 155.833
lowerback -1.31392 2.41823 -5.71709
upperback -7.07518 2.89455 0.637442
thorax -7.00659 1.70528 3.7299
lowerneck -9.48823 -14.5401 -11.6643
upperneck 16.1233 -22.861 17.6604
head 10.1645 -10.3437 4.67011
rclavicle 5.64548e-014 -7.15625e-015
rhumerus 32.4291 3.54075 -78.1359
rradius 26.3361
rwrist -49.9849
rhand -22.0652 -16.4742
rfingers 7.12502
rthumb 4.34581 -46.4096
lclavicle 5.64548e-014 -7.15625e-015
lhumerus 21.0347 -64.319 -4.45273
lradius 120.291
lwrist -1.641
lhand -58.5249 -17.7025
lfingers 7.12502
lthumb -30.7465 9.74699
rfemur -42.136 -3.25018 25.8182
rtibia 62.4699
rfoot -6.01582 3.75255
rtoes -1.69117
lfemur -4.43977 5.23875 -23.4058
ltibia 37.6359
lfoot -18.1835 15.2244
ltoes -20.8388
2716
root -5.77558 14.7339 17.6766 -155.216 -72.7209 155.875
lowerback -1.08566 2.47271 -6.03577
upperback -7.17295 2.93095 0.553399
thorax -7.26757 1.74578 3.80572
lowerneck -9.3871 -14.4551 -11.6385
upperneck 16.1983 -22.7646 17.6056
head 10.1449 -10.3105 4.67531
rclavicle -2.98177e-015 7.15625e-015
rhumerus 31.7119 5.56519 -76.6533
rradius 28.4543
rwrist -52.1527
rhand -22.9985 -17.5588
rfingers 7.12502
rthumb 3.44451 -47.5107
lclavicle -2.98177e-015 7.15625e-015
lhumerus 20.5075 -64.3877 -3.61453
lradius 120.006
lwrist -1.47628
lhand -58.1998 -17.3901
lfingers 7.12502
lthumb -30.4364 10.1173
rfemur -42.8827 -3.09114 25.6253
rtibia 62.2098
rfoot -6.82213 2.53919
rtoes -1.88139
lfemur -2.67841 5.68807 -23.753
ltibia 36.3165
lfoot -18.0881 15.6854
ltoes -21.8906
2717
root -5.99219 14.7089 17.6055 -154.985 -71.7713 155.676
lowerback -0.975339 2.4969 -6.42896
upperback -7.26779 2.92645 0.439963
thorax -7.45705 1.76766 3.89915
lowerneck -9.37298 -14.3668 -11.5945
upperneck 16.3469 -22.6851 17.573
head 10.1716 -10.2745 4.67525
rclavicle 5.08889e-014 5.56597e-015
rhumerus 30.977 7.49357 -75.2925
rradius 30.6817
rwrist -54.1154
rhand -24.0321 -18.6272
rfingers 7.12502
rthumb 2.44637 -48.5929
lclavicle 5.08889e-014 5.56597e-015
lhumerus 19.901 -64.4171 -2.67451
lradius 119.687
lwrist -1.2128
lhand -57.8172 -17.0427
lfingers 7.12502
lthumb -30.0714 10.5316
rfemur -43.5578 -2.95479 25.4275
rtibia 61.3977
rfoot -7.71707 0.501292
rtoes -1.45346
lfemur -1.01296 6.12487 -24.1843
ltibia 35.0186
lfoot -17.8275 16.1437
ltoes -22.6846
2718
root -6.21141 14.6851 17.5285 -154.552 -70.8767 155.34
lowerback -0.997105 2.48949 -6.87124
upperback -7.37105 2.88157 0.306241
thorax -7.57728 1.76976 4.0062
lowerneck -9.43261 -14.2794 -11.5367
upperneck 16.5533 -22.6228 17.5542
head 10.236 -10.2379 4.66888
rclavicle -5.62561e-014 -2.62396e-014
rhumerus 30.2139 9.32149 -74.0508
rradius 32.9855
rwrist -55.8073
rhand -25.1217 -19.6637
rfingers 7.12502
rthumb 1.39402 -49.6389
lclavicle -5.62561e-014 -2.62396e-014
lhumerus 19.231 -64.4213 -1.64683
lradius 119.333
lwrist -0.842794
lhand -57.4033 -16.6558
lfingers 7.12502
lthumb -29.6765 10.9896
rfemur -44.164 -2.82357 25.2461
rtibia 60.0542
rfoot -8.61307 -2.22312
rtoes -0.361058
lfemur 0.462024 6.5517 -24.6443
ltibia 33.8803
lfoot -17.4074 16.5251
ltoes -23.3364
2719
root -6.43244 14.6628 17.4456 -153.954 -70.0505 154.917
lowerback -1.17006 2.44929 -7.34558
upperback -7.47751 2.79939 0.158592
thorax -7.61025 1.7518 4.12468
lowerneck -9.54829 -14.1949 -11.4716
upperneck 16.7853 -22.572 17.5501
head 10.3236 -10.2004 4.66
rclavicle -9.81996e-014 -2.14687e-014
rhumerus 29.4266 11.0609 -72.9023
rradius 35.344
rwrist -57.1942
rhand -26.2178 -20.6547
rfingers 7.12502
rthumb 0.335424 -50.6341
lclavicle -9.81996e-014 -2.14687e-014
lhumerus 18.5054 -64.3898 -0.542129
lradius 118.95
lwrist -0.314402
lhand -56.9429 -16.24
lfingers 7.12502
lthumb -29.237 11.4828
rfemur -44.6894 -2.6829 25.0782
rtibia 58.2122
rfoot -9.48635 -5.29293
rtoes 1.46842
lfemur 1.6687 6.94352 -25.0975
ltibia 33.0483
lfoot -16.8391 16.7696
ltoes -23.9591
